/* XPM */
static char *result[] = {
/* columns rows colors chars-per-pixel */
"32 32 155 2 ",
"   c #000202",
".  c #020906",
"X  c #020C0A",
"o  c #0B0C0C",
"O  c #04110D",
"+  c #051412",
"@  c #091411",
"#  c #061914",
"$  c #0A1C15",
"%  c #061A19",
"&  c #0A1D1C",
"*  c #131313",
"=  c #1A1F1D",
"-  c #092017",
";  c #0B231C",
":  c #0E291E",
">  c #11211F",
",  c #1A211E",
"<  c #112B1D",
"1  c #0B2221",
"2  c #0E2A24",
"3  c #0C2728",
"4  c #0E2C2B",
"5  c #112720",
"6  c #122F24",
"7  c #143525",
"8  c #173927",
"9  c #14342C",
"0  c #163A2B",
"q  c #1B3D2E",
"w  c #133432",
"e  c #153B34",
"r  c #193D34",
"t  c #173D3C",
"y  c #1A3D39",
"u  c #232323",
"i  c #2C2C2C",
"p  c #2C3332",
"a  c #2A3B37",
"s  c #2A3C38",
"d  c #353535",
"f  c #363A39",
"g  c #3D3D3D",
"h  c #19402C",
"j  c #174037",
"k  c #1B4433",
"l  c #1E4B35",
"z  c #1B433C",
"x  c #1E4B3B",
"c  c #20473C",
"v  c #204C3B",
"b  c #2A4A3F",
"n  c #22533B",
"m  c #255A3E",
"M  c #1A4442",
"N  c #1E4D45",
"B  c #1E4C4A",
"V  c #1F524C",
"C  c #244E43",
"Z  c #3F4140",
"A  c #3F4845",
"S  c #225344",
"D  c #255944",
"F  c #295C46",
"G  c #22554E",
"H  c #26584C",
"J  c #365248",
"K  c #225453",
"L  c #265A52",
"P  c #285F55",
"I  c #265D5B",
"U  c #2A6347",
"Y  c #2B644A",
"T  c #2D694B",
"R  c #296254",
"E  c #2E6955",
"W  c #2A635C",
"Q  c #306A5D",
"!  c #327555",
"~  c #35775A",
"^  c #367A5C",
"/  c #397F5D",
"(  c #2A6460",
")  c #2D6A67",
"_  c #2F6D6A",
"`  c #316E65",
"'  c #2F706C",
"]  c #327364",
"[  c #3F7065",
"{  c #347962",
"}  c #33766C",
"|  c #377E6B",
" . c #3A7D68",
".. c #337672",
"X. c #357A76",
"o. c #367D79",
"O. c #444444",
"+. c #4A4B4B",
"@. c #525252",
"#. c #5A5B5A",
"$. c #506B67",
"%. c #527B6A",
"&. c #5B7772",
"*. c #6A6A6A",
"=. c #707171",
"-. c #777F7D",
";. c #797979",
":. c #3A835F",
">. c #398167",
",. c #3D8A66",
"<. c #3A846C",
"1. c #3F8E68",
"2. c #398372",
"3. c #378078",
"4. c #3B867E",
"5. c #408E6A",
"6. c #43966E",
"7. c #578C77",
"8. c #3C8983",
"9. c #41938C",
"0. c #44988F",
"q. c #449990",
"w. c #709287",
"e. c #639991",
"r. c #47A098",
"t. c #878F8D",
"y. c #8B8C8C",
"u. c #849E9B",
"i. c #929594",
"p. c #949998",
"a. c #9A9A9A",
"s. c #9DA6A4",
"d. c #9AACA9",
"f. c #92BDB6",
"g. c #A4A4A4",
"h. c #ABACAC",
"j. c #ACB1B0",
"k. c #B3B3B3",
"l. c #B5B8B8",
"z. c gray73",
"x. c #BBD3CB",
"c. c #C2C2C2",
"v. c #CECECE",
"b. c #CED1D0",
"n. c #D3D3D3",
"m. c #DADDDC",
"M. c #DCE5E3",
"N. c #E4E4E4",
"B. c #E5E8E7",
"V. c #ECECEC",
"C. c #F4F4F4",
"Z. c #F4F9F7",
"A. c #F5FBFA",
"S. c #FEFEFE",
"D. c None",
/* pixels */
"D.D.D.D.D.D.D.D.D.D.D.D.D.& & + X . . D.D.D.D.D.D.D.D.D.D.D.D.D.",
"D.D.D.D.D.D.D.D.D.D.3 t M M M 4 % X . .     D.D.D.D.D.D.D.D.D.D.",
"D.D.D.D.D.D.D.D.X & t B K K K M 3 + X .         D.D.D.D.D.D.D.D.",
"D.D.D.D.D.D.    X % 4 B I I I I t 1 X . .           D.D.D.D.D.D.",
"D.D.D.D.D.      . X % t I ) _ ) K w % X X . .     X X D.D.D.D.D.",
"D.D.D.D.        . . X 1 M ) X.o.' B 3 + X . . . . + w 9 D.D.D.D.",
"D.D.D.            . X + 4 K o.8.8.' M 1 + X . . X 3 I ..t D.D.D.",
"D.D.D.              . X % e ) 9.r.8.) w % X X X & C 8.r.o.D.D.D.",
"D.D.                    X & M o.0.0.4.K 3 + O + t ..0.0.8.e D.D.",
"D.D.                    . + 3 V w + r } M 1 % 5 ( t @ y W w D.D.",
"D.      o +.@.@.@.+.i o   . 5 $.u.t.-.e.` w 3 K I . @ L M 1 X D.",
"D.      u N.S.S.S.S.V.y.o f l.Z.S.S.S.Z.f.L C ] >   C G 6 % X D.",
"D.      g C.C.g.a.v.S.C.;.n.S.m.s.d.M.b.&.| o.c   w P 9 % O X   ",
"        #.S.n.*   d V.S.C.S.c.p + 4 [ s   `  .  $ R j ; + X     ",
"        ;.S.c.u = ;.C.S.S.V.O.  X % j S . @ $   H S 2 % X X     ",
"        a.S.C.N.B.S.S.C.S.c.o . O % 9 ] c     z | C 2 % X X X   ",
"        k.S.B.n.n.z.=.k.S.j.X . + 2 N <.6     > 2.E e ; + X .   ",
"      * b.S.*.* * .   i.S.n., X - j  .n   9 6   c <.S 7 % O X   ",
"      u N.A.O.        #.A.S.p.a C w.x.A + D N O . E { c 2 % O . ",
"D.    g C.V.i         * h.S.S.B.N.A.S.j.v k 0 q   $ >.E q ; #   ",
"D.    O.n.k.*           , t.m.C.C.m.i.J x - # q <   q <.D 9 # D.",
"D.    . * o           . O - v 7.%.= @ x 6 O . % r o   F ^ x % D.",
"D.D.                . X # : D ! $   k q # .   X : 7   $ ~ Y $ D.",
"D.D.              . . O ; l ^ 1.^ T v - X .   . O 0 U ~ 5.F D.D.",
"D.D.D.            . O - 8 Y :.6.,.U : O           % n ,.:.D.D.D.",
"D.D.D.          . O # < n ! :.:.T 8 # .           X : m q D.D.D.",
"D.D.D.D.        . O : h Y ! ! T l % O .             O $ D.D.D.D.",
"D.D.D.D.D.    X O - 8 n Y T U n : O .                 D.D.D.D.D.",
"D.D.D.D.D.D.  X # < l m m m n 7 # .                 D.D.D.D.D.D.",
"D.D.D.D.D.D.D.D.# 8 l n n l 8 - X .             D.D.D.D.D.D.D.D.",
"D.D.D.D.D.D.D.D.D.D.< h h h : X .             D.D.D.D.D.D.D.D.D.",
"D.D.D.D.D.D.D.D.D.D.D.D.@ @ X .         D.D.D.D.D.D.D.D.D.D.D.D."
};
