/* XPM */
static char *aec8743e20784d8ed6daa1811feeeb99[] = {
/* columns rows colors chars-per-pixel */
"32 32 207 2 ",
"   c None",
".  c black",
"X  c #000101",
"o  c #000303",
"O  c #000403",
"+  c #000404",
"@  c #000504",
"#  c #000505",
"$  c #000605",
"%  c #000807",
"&  c #000908",
"*  c #000C0A",
"=  c #000D0A",
"-  c #000D0B",
";  c #000D0C",
":  c #000F0D",
">  c #00100D",
",  c #00130E",
"<  c #00130F",
"1  c #00150F",
"2  c #001211",
"3  c #001511",
"4  c #001814",
"5  c #001A16",
"6  c #001B18",
"7  c #00211C",
"8  c #00231C",
"9  c #00201E",
"0  c #00211F",
"q  c #002A20",
"w  c #002823",
"e  c #002D21",
"r  c #00352A",
"t  c #00322D",
"y  c #00342C",
"u  c #00352C",
"i  c #00352E",
"p  c #003D2B",
"a  c #003F2B",
"s  c #003630",
"d  c #003633",
"f  c #003E3A",
"g  c #00402C",
"h  c #004033",
"j  c #004134",
"k  c #004D37",
"l  c #00403D",
"z  c #004939",
"x  c #005C3F",
"c  c #004440",
"v  c #004542",
"b  c #004941",
"n  c #00554A",
"m  c #00514D",
"M  c #00574F",
"N  c #00594D",
"B  c #006146",
"V  c #006650",
"C  c #006455",
"Z  c #00655C",
"A  c #006E58",
"S  c #006D5F",
"D  c #007351",
"F  c #00706A",
"G  c #007C6D",
"H  c #007F71",
"J  c #008964",
"K  c #00816F",
"L  c #00826E",
"P  c #008D6D",
"I  c #008D74",
"U  c #00867F",
"Y  c #00917A",
"T  c #00967A",
"R  c #009F7E",
"E  c #00AF79",
"W  c #009E82",
"Q  c #009D8F",
"!  c #00A281",
"~  c #00AF82",
"^  c #00AD8C",
"/  c #00B287",
"(  c #00A392",
")  c #00A89F",
"_  c #00AE9D",
"`  c #00B895",
"'  c #00BA94",
"]  c #00BA9A",
"[  c #00BD9F",
"{  c #00B9AE",
"}  c #00C39B",
"|  c #00CF9D",
" . c #00D29C",
".. c #00C4A5",
"X. c #00C4A8",
"o. c #00C5B4",
"O. c #00CAB8",
"+. c #00CABA",
"@. c #00D1B0",
"#. c #00D9B6",
"$. c #00DAB7",
"%. c #00D0BD",
"&. c #00D3BF",
"*. c #00EBA3",
"=. c #00EAAB",
"-. c #00F6A7",
";. c #00FFA2",
":. c #00FFA3",
">. c #00FFA4",
",. c #00FFA6",
"<. c #00F3AB",
"1. c #00F7A8",
"2. c #00FFA8",
"3. c #00FCAB",
"4. c #00FFAB",
"5. c #00FDAC",
"6. c #00FFAD",
"7. c #00E8B3",
"8. c #00E2B8",
"9. c #00EABB",
"0. c #00F9B2",
"q. c #00FFB0",
"w. c #00FFB1",
"e. c #00FFB2",
"r. c #00FFB3",
"t. c #00FFB4",
"y. c #00FFB5",
"u. c #00FEB6",
"i. c #00FFB6",
"p. c #00FFB9",
"a. c #00FFBA",
"s. c #00FFBC",
"d. c #00FFBD",
"f. c #00FFBF",
"g. c #00DAC5",
"h. c #00E1CF",
"j. c #00E8CC",
"k. c #00EFCC",
"l. c #00F0C0",
"z. c #00F5C3",
"x. c #00F8C2",
"c. c #00FFC0",
"v. c #00FFC2",
"b. c #00FFC3",
"n. c #00FFC4",
"m. c #00FFC5",
"M. c #00FFC7",
"N. c #00FFC8",
"B. c #00FFC9",
"V. c #00FFCA",
"C. c #00FFCB",
"Z. c #00FACC",
"A. c #00FFCC",
"S. c #00FFCD",
"D. c #00FFCF",
"F. c #00EED5",
"G. c #00E8DC",
"H. c #00F0D0",
"J. c #00F0D4",
"K. c #00FCD1",
"L. c #00FFD2",
"P. c #00FFD3",
"I. c #00FFD6",
"U. c #00F0D8",
"Y. c #00FDD9",
"T. c #00FFD8",
"R. c #00FFD9",
"E. c #00FCDB",
"W. c #00FDDB",
"Q. c #00FFDA",
"!. c #00FFDC",
"~. c #00FFDD",
"^. c #00FFDE",
"/. c #00FFDF",
"(. c #00F4E4",
"). c #00FFE1",
"_. c #00FFE2",
"`. c #00FFE3",
"'. c #00FFE4",
"]. c #00FFE5",
"[. c #00FDE6",
"{. c #00FFE7",
"}. c #00F7EC",
"|. c #00FFE8",
" X c #00FFE9",
".X c #00FFEA",
"XX c #00FFEB",
"oX c #00F8ED",
"OX c #00FAEF",
"+X c #00FFEC",
"@X c #00FFED",
"#X c #00FFEE",
"$X c #00FFEF",
"%X c #00FBF0",
"&X c #00FEF0",
"*X c #00FFF0",
"=X c #00FFF1",
"-X c #00FFF3",
";X c #00FFF5",
":X c #00FFF6",
">X c #00FFF7",
",X c #00FFF8",
"<X c #00FFFA",
"1X c #00FFFB",
"2X c #00FFFC",
"3X c #00FFFD",
"4X c #00FFFE",
/* pixels */
"                        2X2X2X2X2X2X2X2X                        ",
"                  2X2X2X2X2X2X2X2X2X2X2X2X2X2X                  ",
"              <X<X<X<X<X2X<X<X<X<X<X2X2X<X<X<X<X<X              ",
"            >X<X>X>X<X>X<X<X<X<X>X<X<X<X>X>X>X>X<X<X            ",
"          >X>X>X>X>X-X>X>X>X>X>X>X>X>X>X>X>X>X>X>X>X>X          ",
"        -X-X-X-X-X-X-XoX}.}.}.oX}.oXoX>X>X-X-X-X-X-X-X-X        ",
"      $X$X-X$X-X$X-X$XU l l l v l v m F ) G.-X-X$X-X$X-X-X      ",
"    XX$X$XXX$X$X$X$X(.f X X X X X X X X O d { $XXX$X$XXX$X$X    ",
"    XXXXXXXXXXXXXXXXh.0 X X - 2 2 : # X X X 6 +.$XXXXXXXXXXX    ",
"  {.{.{.{.{.{.{.{.XXo.- X & Q &.&.+._ M # X X Z {.{.{.{.{.{.{.  ",
"  `.`.{.`.`.`.`.{.{.( X X 5 g.XX{.{.{.F.b X X t F.`.`.`.`.`.{.  ",
"  /.`./.`./.`.`./.`.G X X u F.`.`./.`.`.H X X w j.`.`./.`.`.`.  ",
"/././././.T./././.Y.n X X N T./.T.T././.S X X u H.`././.T./././.",
"T.T.T.T./.T.T.T.T.k.y X X K /./././.T.X.7 X X C T.T.T.T.T.T.T.T.",
"I.I.I.I.I.I.I.I.T.#.5 X X Y @.#.#...K 0 X X > [ T.I.I.I.I.I.I.I.",
"L.L.L.L.L.L.L.L.I.] % X > W u 3 5 & X X X - I K.I.L.L.L.L.L.L.L.",
"L.S.L.S.S.L.L.S.L.T X X 0 8.' r # X X - h ^ Z.S.L.S.L.S.S.L.S.S.",
"V.V.V.S.V.V.V.V.V.A X X h z.S.9.' R ! } l.S.V.S.S.V.V.V.S.V.V.S.",
"V.n.V.n.V.n.n.V.z.z X X V V.n.V.V.V.V.V.V.n.V.n.n.V.n.V.n.V.V.n.",
"n.n.n.n.n.n.b.b.7.q X X P n.b.b.n.n.n.b.n.n.n.b.n.n.n.n.n.n.n.n.",
"  b.f.f.f.f.b.b. .1 X # / b.f.f.b.f.f.f.f.f.f.f.f.f.f.f.b.f.f.  ",
"  f.a.f.f.f.a.b.~ X X 1  .f.f.f.a.f.f.f.f.f.f.f.f.f.f.f.f.f.f.  ",
"  a.a.a.a.a.y.f.J X X e =.a.a.a.a.a.a.a.y.a.a.a.y.a.a.a.a.a.a.  ",
"    y.y.y.y.y.y.B X X k 0.y.y.y.y.y.y.y.y.y.y.y.y.y.y.y.y.y.    ",
"    r.r.r.r.y.<.p X X D y.r.r.r.r.r.r.y.r.r.r.y.r.r.r.r.r.r.    ",
"      r.r.6.r.*.x p p E r.r.r.6.r.6.r.6.r.6.r.6.6.r.6.r.r.      ",
"        6.6.4.4.1.-.-.4.4.6.6.6.4.6.6.6.4.6.4.6.6.6.6.6.        ",
"          4.4.4.4.4.4.4.4.4.4.4.4.4.4.4.4.4.4.4.4.4.4.          ",
"            4.,.,.4.,.,.,.,.4.,.,.4.,.4.,.4.,.4.,.4.            ",
"              ,.,.,.,.,.,.,.,.,.,.,.,.,.,.,.,.,.,.              ",
"                  ,.:.,.,.:.:.:.:.:.:.:.,.:.,.                  ",
"                        :.:.:.:.:.:.:.:.                        "
};
