/* XPM */
static char *result[] = {
/* columns rows colors chars-per-pixel */
"16 16 165 2 ",
"   c black",
".  c #000100",
"X  c #000101",
"o  c #000201",
"O  c #000202",
"+  c #000302",
"@  c #010302",
"#  c #000303",
"$  c #010303",
"%  c #010403",
"&  c #010503",
"*  c #010504",
"=  c #010505",
"-  c #010604",
";  c #010605",
":  c #010707",
">  c #070707",
",  c #010805",
"<  c #020806",
"1  c #020906",
"2  c #020807",
"3  c #010808",
"4  c #020808",
"5  c #020B0B",
"6  c #020C09",
"7  c #020C0B",
"8  c #030C0B",
"9  c #030E0A",
"0  c #040F0B",
"q  c #030F0C",
"w  c #0E0E0E",
"e  c #01120F",
"r  c #05110C",
"t  c #05150F",
"y  c #031110",
"u  c #041010",
"i  c #041110",
"p  c #041311",
"a  c #051213",
"s  c #051411",
"d  c #071710",
"f  c #081B14",
"g  c #091B15",
"h  c #0B1C16",
"j  c #091F16",
"k  c #071A1A",
"l  c #0D1E19",
"z  c #0D1E1A",
"x  c #091E1C",
"c  c gray8",
"v  c #191919",
"b  c #0A2019",
"n  c #0E201B",
"m  c #0D251A",
"M  c #0E261C",
"N  c #0F2B1E",
"B  c #18211F",
"V  c #0B2323",
"C  c #0B2520",
"Z  c #0C2727",
"A  c #0F2726",
"S  c #0E2B22",
"D  c #0E2B23",
"F  c #0E2C21",
"G  c #0E2C29",
"H  c #102D23",
"J  c #122A26",
"K  c #122F25",
"L  c #142D24",
"P  c #102D29",
"I  c #132D28",
"U  c #102D2B",
"Y  c #102C2C",
"T  c #122E2E",
"R  c #133222",
"E  c #143121",
"W  c #113124",
"Q  c #143726",
"!  c #183F2C",
"~  c #143734",
"^  c #163C32",
"/  c #173D36",
"(  c #183A34",
")  c #1D3E34",
"_  c #163838",
"`  c #173D3D",
"'  c #222726",
"]  c #262727",
"[  c #272727",
"{  c #242827",
"}  c gray17",
"|  c #1E4334",
" . c #1F4735",
".. c #1F4A36",
"X. c #1F4C34",
"o. c #19423F",
"O. c #1A463C",
"+. c #37423F",
"@. c #23553B",
"#. c #22523C",
"$. c #21523F",
"%. c #1F4941",
"&. c #1D4C44",
"*. c #1E4E49",
"=. c #204E49",
"-. c #255941",
";. c #2A5F46",
":. c #245549",
">. c #20504F",
",. c #20514F",
"<. c #2C5E4F",
"1. c #245650",
"2. c #245857",
"3. c #255A58",
"4. c #295F59",
"5. c #2A6347",
"6. c #2A6349",
"7. c #2A624F",
"8. c #2C684A",
"9. c #2A6050",
"0. c #2F6A50",
"q. c #2D6D51",
"w. c #2A605B",
"e. c #2C635D",
"r. c #396058",
"t. c #306862",
"y. c #31726F",
"u. c #337772",
"i. c #367F79",
"p. c #485E56",
"a. c gray33",
"s. c gray37",
"d. c #43716A",
"f. c #686969",
"g. c DimGray",
"h. c #647572",
"j. c gray47",
"k. c #3B8762",
"l. c #3B8983",
"z. c #7F918D",
"x. c #818181",
"c. c #838F8D",
"v. c #8E9995",
"b. c #9B9B9B",
"n. c gray62",
"m. c #93A29D",
"M. c #94ABA2",
"N. c #A2A2A2",
"B. c #A7A7A7",
"V. c #ADAFAF",
"C. c #A1B2AD",
"Z. c #AAB0AF",
"A. c #ABBEBB",
"S. c #B4B4B4",
"D. c #B6BEBC",
"F. c gray73",
"G. c gray80",
"H. c #CFD0CF",
"J. c #D0D0D0",
"K. c gray82",
"L. c #D1D2D2",
"P. c gray87",
"I. c #E6E6E6",
"U. c gray95",
"Y. c None",
/* pixels */
"Y.Y.Y.Y.Y.T _ Y u = X Y.Y.Y.Y.Y.",
"Y.Y.Y.Y.a ` 2.>.Z 5 $ X Y.Y.Y.Y.",
"Y.Y.  O 4 V 3.y.,.k : $ 8 A Y.Y.",
"Y.Y.  X # 7 ~ i.l.o.i 3 U u.w.Y.",
"Y.    X X o y *.t.4.G x =.e.1.Y.",
"    a.N.n.f.' c.D.A.d.&.J ( P 7 ",
"    n.B.j.I.H.V.h.z.r.%.I / p ; ",
"  > F.S.b.U.P.{ e O.z n :.C 7 * ",
"  c G.b.g.x.K.B D <.n l 9.^ s 2 ",
"  [ J.}   ] L.Z.C.m.) K L 7.S q ",
"  v s.w X * +.M.v.p.H b h | $.g ",
"Y.    X % 6 F q...W 0 < M  .0.Y.",
"Y.Y.X @ 1 j -.k.6.f % o 0 #.;.Y.",
"Y.Y.o - t ! 8.5.N , o   + r Y.Y.",
"Y.Y.Y., m X.@.Q 9 + .     Y.Y.Y.",
"Y.Y.Y.Y.Y.E R d & X   Y.Y.Y.Y.Y."
};
