/* XPM */
static char *e84cee7d31194d1ee4dd84c5123e9973[] = {
/* columns rows colors chars-per-pixel */
"64 64 120 2 ",
"   c None",
".  c #000000",
"X  c #000907",
"o  c #000B09",
"O  c #00110E",
"+  c #001612",
"@  c #001B15",
"#  c #001C19",
"$  c #00241D",
"%  c #002420",
"&  c #002C22",
"*  c #002F29",
"=  c #003726",
"-  c #00322B",
";  c #00392C",
":  c #003A33",
">  c #004335",
",  c #00433D",
"<  c #004B3C",
"1  c #005139",
"2  c #004640",
"3  c #004D44",
"4  c #005344",
"5  c #005E45",
"6  c #00544D",
"7  c #005F4C",
"8  c #005C51",
"9  c #00664D",
"0  c #006B4A",
"q  c #006B53",
"w  c #006359",
"e  c #007553",
"r  c #007D56",
"t  c #00715D",
"y  c #006B60",
"u  c #007362",
"i  c #007A64",
"p  c #00736D",
"a  c #007771",
"s  c #007972",
"d  c #008364",
"f  c #008268",
"g  c #008D6A",
"h  c #009A6C",
"j  c #008573",
"k  c #008A74",
"l  c #008078",
"z  c #008D7D",
"x  c #009274",
"c  c #009E71",
"v  c #00947B",
"b  c #008780",
"n  c #009284",
"m  c #009E84",
"M  c #009D95",
"N  c #00A282",
"B  c #00AA82",
"V  c #00AB8F",
"C  c #00B285",
"Z  c #00BE86",
"A  c #00A395",
"S  c #00AB95",
"D  c #00A99A",
"F  c #00B693",
"G  c #00BB95",
"H  c #00B29C",
"J  c #00B99A",
"K  c #00B7A7",
"L  c #00B8A7",
"P  c #00B7AD",
"I  c #00BDAC",
"U  c #00C28B",
"Y  c #00CB9C",
"T  c #00D29B",
"R  c #00DC9A",
"E  c #00C2A3",
"W  c #00C0AF",
"Q  c #00CEAD",
"!  c #00DEA1",
"~  c #00D6AB",
"^  c #00C6B2",
"/  c #00CDB4",
"(  c #00D5B4",
")  c #00DAB1",
"_  c #00D2BF",
"`  c #00DDBE",
"'  c #00ECA3",
"]  c #00EAAB",
"[  c #00F0A7",
"{  c #00FFA4",
"}  c #00FFAC",
"|  c #00E5B0",
" . c #00E7BB",
".. c #00EDBF",
"X. c #00F2B1",
"o. c #00FFB4",
"O. c #00F6BE",
"+. c #00FFBC",
"@. c #00D6C4",
"#. c #00DCC3",
"$. c #00D6CA",
"%. c #00D9CD",
"&. c #00EFC3",
"*. c #00E4CA",
"=. c #00EBC8",
"-. c #00FFC4",
";. c #00F1CE",
":. c #00FFCB",
">. c #00E6D5",
",. c #00EDD3",
"<. c #00ECDC",
"1. c #00F4D2",
"2. c #00FFD3",
"3. c #00F4DA",
"4. c #00FFDB",
"5. c #00F4E7",
"6. c #00FFE3",
"7. c #00FFEB",
"8. c #00FFF4",
"9. c #00FFFB",
/* pixels */
"                                                    9.9.9.9.9.9.9.9.9.9.9.9.                                                    ",
"                                            9.9.9.9.9.9.9.9.9.9.9.9.9.9.9.9.9.9.9.9.                                            ",
"                                        9.9.9.9.9.9.9.9.9.9.9.9.9.9.9.9.9.9.9.9.9.9.9.9.                                        ",
"                                  9.9.9.9.9.9.9.9.9.9.9.9.9.9.9.9.9.9.9.9.9.9.9.9.9.9.9.9.9.9.                                  ",
"                                9.9.9.9.9.9.9.9.9.9.9.9.9.9.9.9.9.9.9.9.9.9.9.9.9.9.9.9.9.9.9.9.                                ",
"                            9.9.9.9.9.9.9.8.9.9.9.9.9.9.9.9.9.9.9.9.9.9.9.9.9.9.9.9.9.9.9.9.9.9.9.9.                            ",
"                          9.9.9.9.8.9.9.9.9.9.9.9.9.9.9.8.9.9.9.9.9.9.8.9.9.9.9.9.8.9.9.9.9.9.8.9.9.9.                          ",
"                      9.9.8.9.9.9.8.9.8.9.8.9.8.9.9.9.9.9.8.8.9.9.8.9.9.8.9.9.9.9.9.8.8.9.8.9.9.9.9.9.9.9.                      ",
"                    9.8.9.8.9.8.8.9.8.9.9.8.9.9.8.9.9.8.9.9.8.9.8.9.8.9.8.9.8.9.8.9.9.8.9.8.9.8.8.9.8.9.9.8.                    ",
"                  9.8.8.8.8.8.8.9.8.8.8.8.8.8.8.8.8.8.9.8.8.8.8.8.8.8.8.8.9.8.8.8.8.8.8.8.8.8.8.8.8.8.8.8.8.9.                  ",
"                8.8.8.8.8.8.8.8.8.8.8.8.8.8.8.8.8.8.8.8.8.8.8.8.8.8.8.8.8.8.8.8.8.8.8.8.9.8.8.8.8.8.9.8.8.8.8.8.                ",
"              8.8.8.8.8.8.8.8.8.8.8.8.8.8.8.8.8.8.8.8.8.8.8.8.9.9.8.8.8.8.8.9.9.8.8.8.8.7.8.8.8.8.8.8.7.8.8.8.8.8.              ",
"              7.7.8.8.8.7.8.8.7.8.8.7.8.7.8.%.a p p p p p p p p p p p a b M P $.5.8.9.7.8.8.8.8.7.8.8.7.8.7.8.8.8.              ",
"            8.8.8.8.7.7.8.7.7.8.7.8.8.7.8.9.M . . . . . . . . . . . . . . . X # : z $.9.8.7.7.8.8.7.7.8.8.8.7.8.7.8.            ",
"          7.8.7.7.7.7.8.7.8.8.7.7.8.7.7.7.8.a . . . . . . . . . . . . . . . . . . . % s <.8.7.8.7.8.7.8.7.7.7.8.8.7.7.          ",
"          7.7.7.8.7.7.8.7.7.7.7.7.8.7.7.7.7.6 . . . . . . . . . . . . . . . . . . . . . 3 %.7.7.7.7.7.7.7.8.7.7.7.7.7.          ",
"        7.7.7.7.7.7.7.7.7.7.7.7.7.7.7.7.7.<.- . . . . . . . . . . . . . . . . . . . . . . 2 >.7.7.7.7.7.7.7.7.7.7.7.7.7.        ",
"      7.7.7.7.7.7.7.6.7.7.7.7.7.7.7.7.7.7._ @ . . . . . . o X X o X X . . . . . . . . . . . p 7.7.7.7.7.7.7.6.7.7.7.7.7.7.      ",
"      7.7.6.7.6.7.7.7.6.6.7.7.7.6.7.6.7.7.K X . . . . . w W I I I I K A z 8 # . . . . . . . # _ 7.7.7.7.7.7.7.6.6.7.7.7.7.      ",
"      7.6.7.6.7.6.7.6.7.7.6.6.6.7.6.7.6.7.n . . . . . . A 8.7.7.7.7.7.7.7.7._ 8 . . . . . . . b 7.6.7.6.6.7.6.7.7.6.6.6.7.      ",
"    6.7.6.7.6.6.6.7.6.6.7.6.6.7.6.6.6.7.7.y . . . . . o W 7.6.6.6.7.6.6.6.7.7.,.3 . . . . . . 6 4.7.6.6.7.6.7.6.6.7.7.6.6.6.    ",
"    6.6.6.6.6.6.6.6.6.6.4.6.6.6.6.6.6.6.3.< . . . . . $ *.7.6.6.6.6.6.6.6.6.4.7.K X . . . . . : 1.6.6.6.6.6.6.6.6.6.4.6.6.6.    ",
"  6.4.6.6.6.4.6.6.6.4.7.6.6.6.6.6.6.6.6.*.& . . . . . , 1.6.6.6.6.6.4.6.6.6.4.6.#.# . . . . . * ,.7.4.7.4.6.6.6.4.6.6.6.6.6.6.  ",
"  4.6.6.4.6.4.6.6.4.6.4.6.4.4.6.6.4.4.7./ O . . . . . w 6.4.6.6.4.6.4.6.6.4.6.6.*.% . . . . . - ,.4.6.4.6.4.4.6.4.6.6.4.6.4.6.  ",
"  6.4.4.4.4.6.4.6.4.6.4.6.4.4.6.4.4.6.6.S X . . . . . z 6.4.6.4.4.6.4.4.4.6.4.6.#.# . . . . . > 1.6.6.4.4.6.4.4.4.6.4.4.6.4.6.  ",
"  4.4.4.4.4.4.4.4.4.4.4.4.4.4.4.4.4.4.4.j . . . . . X H 4.4.4.4.4.4.4.4.4.4.4.6.S X . . . . . 8 4.4.4.4.4.4.4.4.4.4.4.4.4.4.4.  ",
"4.4.4.4.4.4.4.4.4.4.4.4.4.2.4.4.4.4.4.4.8 . . . . . + ( 4.4.4.4.4.4.4.4.4.4.4.;.3 . . . . . . z 4.4.4.4.4.4.4.4.4.4.2.4.4.4.4.4.",
"2.4.4.4.2.4.4.4.4.2.4.4.4.4.2.4.2.4.4.;.: . . . . . * =.4.4.2.4.4.2.4.4.4.4.=.u X . . . . . + Q 4.4.2.4.4.4.4.4.4.4.4.4.4.4.2.4.",
"4.2.2.4.2.4.4.2.2.4.4.2.4.2.2.4.2.4.4.` # . . . . . 3 2.4.4.4.4.4.2.4.4.1.E 3 . . . . . . . 9 1.2.2.4.2.4.2.2.2.4.2.2.2.2.4.2.4.",
"2.2.2.2.2.2.2.2.2.2.2.2.2.2.2.2.2.2.4.E o . . . . . t J S E ~ ( ( Q J k < + . . . . . . . # Q 4.2.4.4.2.2.2.2.4.2.4.2.2.2.2.2.2.",
"2.2.2.2.2.2.2.2.2.2.2.2.2.2.2.2.2.2.2.m . . . . . . v v . o O + + O X . . . . . . . . X o m 2.2.2.2.2.2.2.2.2.2.2.2.2.2.2.2.2.2.",
"2.2.2.2.2.2.2.:.2.2.:.2.2.2.2.2.2.2.2.i . . . . . X J &.< . . . . . . . . . . . . . . O v 1.2.:.2.2.:.2.2.2.:.2.2.2.2.2.2.:.2.2.",
":.2.2.2.2.2.2.2.:.2.:.2.:.2.2.2.2.2.:.4 . . . . . @ ) 2.) > . . . . . . . . . . . X - F :.2.2.2.:.2.:.2.2.2.:.2.:.2.2.2.:.2.:.:.",
"2.:.:.:.:.:.:.:.2.:.2.:.2.:.:.:.:.:. .- . . . . . - &.:.2. .i $ X . . . . . . o - x  .2.2.:.:.:.2.:.2.:.:.:.:.2.:.:.:.2.:.2.:.2.",
":.:.:.:.:.:.:.:.:.:.:.:.:.:.:.:.:.:.~ + . . . . . 4 :.:.:.:.:.) N t 4 < < 7 f G &.:.:.:.:.:.:.:.:.:.:.:.:.:.:.:.:.:.:.:.:.:.:.:.",
":.:.:.:.:.:.:.:.:.:.:.:.:.:.:.:.:.:.F X . . . . . f :.:.:.:.:.:.:.:.-.-.:.:.:.:.:.:.:.:.:.:.:.:.:.:.:.:.:.:.:.:.:.:.:.:.:.:.:.:.",
"-.:.-.:.:.-.:.:.-.:.-.:.:.-.:.:.:.:.x . . . . . . B :.:.:.-.:.:.-.:.:.:.:.:.:.-.:.:.-.-.:.-.-.:.-.:.:.:.-.:.:.:.:.-.-.:.:.:.:.-.",
":.-.-.-.:.-.-.-.-.:.:.-.-.:.-.-.:.-.q . . . . . O Y :.-.:.-.-.-.:.-.-.-.-.-.:.-.-.:.-.:.-.:.-.-.-.-.-.:.:.-.-.-.-.:.-.:.-.-.-.:.",
"  -.:.-.-.-.-.-.-.-.-.-.-.-.-.-.-.-.> . . . . . $ | -.-.-.-.-.-.-.-.-.-.-.-.-.-.-.-.-.-.-.-.-.-.-.-.-.-.-.-.-.-.-.-.-.-.-.-.-.  ",
"  -.-.-.-.-.-.-.-.-.-.-.-.-.-.-.-.| $ . . . . . > O.-.-.-.-.-.-.-.-.-.-.-.-.-.-.-.-.-.-.-.-.-.-.-.-.-.-.-.-.-.-.-.-.-.-.-.-.-.  ",
"  -.-.-.-.-.-.+.-.-.-.-.-.+.-.+.-.Y O . . . . . 9 -.+.-.+.-.+.-.-.-.-.+.-.-.+.-.-.-.-.+.-.-.+.-.-.-.+.-.+.-.-.+.-.-.-.-.-.-.-.  ",
"  +.+.+.+.+.-.+.+.+.+.+.-.+.-.+.:.c X . . . . . g -.-.+.-.+.-.+.+.+.+.-.+.-.-.+.+.+.-.+.+.-.+.-.+.+.-.-.+.+.-.-.-.+.+.+.+.+.+.  ",
"    +.-.+.-.+.+.+.-.+.+.+.+.-.+.-.d . . . . . X C +.+.+.+.+.+.-.+.-.+.+.+.+.+.+.-.+.+.+.+.+.+.+.+.+.+.+.-.+.+.+.+.+.+.-.+.-.    ",
"    +.+.+.+.+.+.+.+.+.+.+.+.+.+.+.5 . . . . . O Y -.+.+.+.+.+.+.+.+.+.+.+.+.+.+.+.+.+.+.+.+.+.+.+.+.+.+.+.+.+.+.+.+.+.+.+.+.    ",
"      +.+.+.+.+.o.+.+.+.+.+.+.+.X.; . . . . . & ] +.+.+.o.+.+.+.+.+.o.+.+.+.+.+.+.+.+.+.+.o.+.+.+.+.+.+.o.+.+.+.+.+.+.+.+.      ",
"      +.+.o.+.o.+.+.o.+.o.+.o.+.! # . . . . . 1 o.+.+.o.+.+.o.+.+.o.+.+.+.o.o.+.+.o.o.+.+.+.+.+.+.o.+.o.+.+.+.o.o.+.o.+.+.      ",
"      o.+.o.o.o.+.o.+.o.o.+.o.+.U o . . . . . e o.o.+.o.o.+.+.o.o.+.o.o.o.+.o.+.o.+.o.+.o.o.+.o.+.o.o.+.+.o.o.+.o.+.+.o.o.      ",
"        o.o.+.o.o.o.o.o.o.o.o.o.h X . . . . . h +.o.o.o.o.o.o.o.o.o.o.+.o.o.o.o.o.o.o.o.o.o.o.o.o.o.o.o.o.o.o.o.o.o.o.o.        ",
"          o.o.o.o.o.o.o.o.o.o.o.e . . . . . X U o.o.o.o.o.o.o.o.o.o.o.o.o.o.o.o.o.o.o.o.o.o.o.o.o.o.o.o.o.o.o.o.o.o.o.          ",
"          o.o.o.} o.o.} o.o.o.} 1 . . . . . # R o.o.} o.o.o.o.} o.o.} o.o.o.o.o.o.o.o.} } o.o.o.o.o.} o.o.o.o.o.o.} o.          ",
"            } o.o.} o.o.} o.o.' & . . . . . = ' o.o.o.} o.} o.o.} o.o.o.} o.o.} } o.o.o.o.o.o.} o.} o.} o.} o.o.o.o.            ",
"              o.} o.} o.} o.} ' r 0 0 0 0 0 h } } } } o.o.} } } o.} } o.} } o.} o.} } o.} } o.} } o.} o.o.} } } }               ",
"              } } o.} } o.} o.} o.} o.} o.} o.} } o.} } } o.} o.} o.} } } } } o.} } o.} } } } o.} o.} o.} } } o.}               ",
"                } } } } } } } } } } } } } } } } } } } } } } } } } } } } } } } } } } } } } } } } } } } } o.} } }                 ",
"                  } } } } } } } } } } } } } } } } } } } } } } } } } } } } } { } } } } } } } } } } } } } } } }                   ",
"                    } { } } } } { } } { } } { } } } } } } } } { } } } } } } } } } } } } } } { } } } } { } }                     ",
"                      } } } } { } } { } } { } } { } { } { { { { { } { } } } } { } } { } { } } } } } } } }                       ",
"                          { { } { } } { } { { } } { } { { { { { } { } } { { { } { } } { } { { } { { {                           ",
"                            } { { { { { { { } { { { { { { { { { { } { { { } { { { { { { { { } { { }                             ",
"                                } { { { { { { { { { { { { { { { { { { { { { { { { { { { { { { {                                 ",
"                                  { { { { { { { { { { { { { { { { { { { { { { { { { { { { { {                                   ",
"                                        { { { { { { { { { { { { { { { { { { { { { { { {                                         ",
"                                            { { { { { { { { { { { { { { { { { { { {                                             ",
"                                                    { { { { { { { { { { { {                                                     "
};
