/* XPM */
static char *result[] = {
/* columns rows colors chars-per-pixel */
"64 64 195 2 ",
"   c #000201",
".  c #020906",
"X  c #020C0A",
"o  c #0B0C0B",
"O  c #04120E",
"+  c #08130E",
"@  c #041412",
"#  c #0A1513",
"$  c #061A14",
"%  c #0A1C15",
"&  c #071B1A",
"*  c #091D1B",
"=  c #131313",
"-  c #131917",
";  c #1A1B1B",
":  c #111F1A",
">  c #0A2017",
",  c #0A231B",
"<  c #0E2A1E",
"1  c #122B1F",
"2  c #12231D",
"3  c #0B2422",
"4  c #0E2B24",
"5  c #0E2B2A",
"6  c #112521",
"7  c #1D2221",
"8  c #112D24",
"9  c #112E2B",
"0  c #123325",
"q  c #12332C",
"w  c #1A362C",
"e  c #163B2B",
"r  c #183D2C",
"t  c #133533",
"y  c #163B34",
"u  c #1A3B32",
"i  c #163C3A",
"p  c #242424",
"a  c #272E2B",
"s  c #2D2D2D",
"d  c #293533",
"f  c #333434",
"g  c #393C3B",
"h  c #1A422E",
"j  c #1B4434",
"k  c #1E4A34",
"l  c #1A433B",
"z  c #1D4A3B",
"x  c #204D36",
"c  c #214E3B",
"v  c #3D403F",
"b  c #215037",
"n  c #22533C",
"m  c #25593D",
"M  c #1A4442",
"N  c #1D4B44",
"B  c #1E4C4A",
"V  c #214C44",
"C  c #214E49",
"Z  c #235443",
"A  c #265C42",
"S  c #295D45",
"D  c #22534C",
"F  c #265B4C",
"G  c #34574B",
"H  c #225553",
"J  c #255A55",
"K  c #295F50",
"L  c #265D5A",
"P  c #375853",
"I  c #394E4B",
"U  c #2A6347",
"Y  c #2A634B",
"T  c #2E6B4D",
"R  c #266049",
"E  c #2A6354",
"W  c #2D6A53",
"Q  c #29635C",
"!  c #2E6C5C",
"~  c #316C54",
"^  c #316F5D",
"/  c #327454",
"(  c #347957",
")  c #32735B",
"_  c #367C5B",
"`  c #387F5C",
"'  c #2A6462",
"]  c #2D6B65",
"[  c #2E6D6B",
"{  c #2F706C",
"}  c #2E7064",
"|  c #317363",
" . c #367A62",
".. c #32736C",
"X. c #35796B",
"o. c #3B7962",
"O. c #327672",
"+. c #357C75",
"@. c #377F7A",
"#. c #434343",
"$. c gray30",
"%. c #43514E",
"&. c #4F5050",
"*. c #545454",
"=. c #535C5A",
"-. c #5A5B5A",
";. c #53625F",
":. c #576664",
">. c #567C6E",
",. c #567C75",
"<. c #6B6C6C",
"1. c #626766",
"2. c #737474",
"3. c #7C7C7C",
"4. c #6E7A76",
"5. c #38805D",
"6. c #3A8462",
"7. c #3C8965",
"8. c #3A836C",
"9. c #3E8C6A",
"0. c #3B8374",
"q. c #3E8D76",
"w. c #37807B",
"e. c #3A847C",
"r. c #3C8A7D",
"t. c #41926C",
"y. c #408F77",
"u. c #429572",
"i. c #459A72",
"p. c #419279",
"a. c #469D7B",
"s. c #628C7B",
"d. c #4AA57B",
"f. c #48A177",
"g. c #3A8681",
"h. c #3D8B83",
"j. c #3E8E88",
"k. c #3F918A",
"l. c #419384",
"z. c #469C83",
"x. c #41948B",
"c. c #459B8C",
"v. c #489E82",
"b. c #459B93",
"n. c #489F95",
"m. c #7B8381",
"M. c #6C9185",
"N. c #709E8D",
"B. c #49A283",
"V. c #49A289",
"C. c #47A198",
"Z. c #49A39B",
"A. c #4CAB96",
"S. c #50B19A",
"D. c #61A195",
"F. c #71A399",
"G. c #4DADA3",
"H. c #6BB4A9",
"J. c #8C8C8C",
"K. c #85928F",
"L. c #939393",
"P. c #9B9C9C",
"I. c #909B98",
"U. c #9CA09F",
"Y. c #95A9A6",
"T. c #80BBA4",
"R. c #8DBEB5",
"E. c #99BEB4",
"W. c #A5ABA9",
"Q. c #ACAEAD",
"!. c #A2A2A2",
"~. c #B2B4B3",
"^. c #BBBCBC",
"/. c #B4BCBA",
"(. c #9CCAC2",
"). c #ADCDC3",
"_. c #BBC4C1",
"`. c #C4C5C5",
"'. c #CBCBCB",
"]. c #C4CCCB",
"[. c #CCD7D5",
"{. c #CBDCD6",
"}. c #DBDBDB",
"|. c #D4D8D7",
" X c #DFE3E2",
".X c #E3E5E4",
"XX c #E5EDEB",
"oX c #EBEBEB",
"OX c #E8F0EF",
"+X c #EFF0F0",
"@X c #EFF8F7",
"#X c #F3F5F4",
"$X c #FFFFFF",
"%X c #F6F9F8",
"&X c None",
/* pixels */
"&X&X&X&X&X&X&X&X&X&X&X&X&X&X&X&X&X&X&X&X&X&X&X&X&X&X&X&X&XX X . . . . &X&X&X&X&X&X&X&X&X&X&X&X&X&X&X&X&X&X&X&X&X&X&X&X&X&X&X&X&X",
"&X&X&X&X&X&X&X&X&X&X&X&X&X&X&X&X&X&X&X&X&X&X&X&X. # # 3 3 3 & & X X X X .       &X&X&X&X&X&X&X&X&X&X&X&X&X&X&X&X&X&X&X&X&X&X&X&X",
"&X&X&X&X&X&X&X&X&X&X&X&X&X&X&X&X&X&X&X&X&XX & 5 i M B M M i t 3 & @ X X . .           &X&X&X&X&X&X&X&X&X&X&X&X&X&X&X&X&X&X&X&X&X",
"&X&X&X&X&X&X&X&X&X&X&X&X&X&X&X&X&X&X. X 5 i B B B B B B B M i 5 3 @ @ X . . . .             &X&X&X&X&X&X&X&X&X&X&X&X&X&X&X&X&X&X",
"&X&X&X&X&X&X&X&X&X&X&X&X&X&X&X&X&XX @ 5 i M B B B H B H B B M t 5 & & X X . . .                 &X&X&X&X&X&X&X&X&X&X&X&X&X&X&X&X",
"&X&X&X&X&X&X&X&X&X&X&X&X&X&X&X  X @ & 5 t M H H H H H H L H B M t 3 & @ X X . . .     .           &X&X&X&X&X&X&X&X&X&X&X&X&X&X&X",
"&X&X&X&X&X&X&X&X&X&X&X&X&X    . X X @ & 5 i B H L L L L L L H B i 5 & & @ X X . .                     &X&X&X&X&X&X&X&X&X&X&X&X&X",
"&X&X&X&X&X&X&X&X&X&X&X&X    .   X X @ & 3 5 M H L ' ' ' ' ' L L B i 5 & & X X . . . .                   &X&X&X&X&X&X&X&X&X&X&X&X",
"&X&X&X&X&X&X&X&X&X&X&X          . . X @ & 3 t M H ' ' [ ] [ ' ' H M t 3 & @ X X X X . . .         . . X . &X&X&X&X&X&X&X&X&X&X&X",
"&X&X&X&X&X&X&X&X&X&X          .   . . X @ & 5 i B L [ [ [ { { [ ' H M t 3 & @ X X X . .         . . X X @ X &X&X&X&X&X&X&X&X&X&X",
"&X&X&X&X&X&X&X&X&X              . . . X X & & 5 M L ] { O.O.O.O.[ ' B i 5 & @ X X . . . .     . . . X @ 3 9 - &X&X&X&X&X&X&X&X&X",
"&X&X&X&X&X&X&X&X                  . . . X X & 3 t B ' [ @.@.w.@.@.[ ' M t 3 & @ X X . . .   . . . . @ & 9 B H 3 &X&X&X&X&X&X&X&X",
"&X&X&X&X&X&X&X                    .   . X X @ & 3 i H [ +.g.h.g.g.@.[ L M 5 3 & @ X X X . . . . . X & 5 M L O.[ * &X&X&X&X&X&X&X",
"&X&X&X&X&X&X                          . . X X @ & 5 i L { h.j.j.k.j.g.[ H i 5 & & X X X . . . X X @ 3 t H O.g.x.' + &X&X&X&X&X&X",
"&X&X&X&X&X&X                          . . . X X @ 3 t B ' w.k.b.b.b.j.g.' B t 5 & @ X X X . X X @ & 9 B { h.x.b.b.V &X&X&X&X&X&X",
"&X&X&X&X&X                            . . . . X @ & 3 t D { h.b.Z.Z.C.k.@.L M 5 & & @ X X . X X & 5 M ' g.b.Z.Z.b.g.6 &X&X&X&X&X",
"&X&X&X&X&X                                  . . X @ & 5 i L +.b.G.G.G.Z.x...H y 5 * @ X X X X $ 3 t L g.C.G.G.G.b.h.C . &X&X&X&X",
"&X&X&X&X                                  .   . X X @ 3 5 B ] r.x.C.Z.n.c.j.] B t 3 & @ @ X @ & 9 H O.j.b.C.C.x.l...H & &X&X&X&X",
"&X&X&X                                      .   . X X & 3 t D ] w # # # 6 e.e.Q M q 3 & @ @ & 4 M [ e.9 # # # w O.Q N 4 . &X&X&X",
"&X&X&X                                        . . X X @ & 5 i L J X       y x.+.H i 5 & & & 3 y L l.V       X Q ] D y 4 . &X&X&X",
"&X&X&X                                        .   . X X @ & 5 l ..P d d 7 # ! x.} B y 3 * 3 t D e.| .       V ..H i 5 3 @   &X&X",
"&X&X              o 3.L.L.L.L.L.L.L.J.3.-.p .   .   . . X 3 :.Y.[.XXXXoX X].Y.H.h.Q z q 4 q N ..l.6       8 X.Q M q 3 & @   &X&X",
"&X&X              p .X$X$X$X$X$X$X$X$X$X$X XJ.;   .   o *._.%X$X$X$X$X$X$X$X$X@X(.0.H l t l ! l.V       # ] ] V y 4 * $ X . &X&X",
"&X&X              g #X$X$X$X$X$X$X$X$X$X$X$X$XW.o   - L.#X$X$X$X$X$X$X$X$X$X$X$X$XR.} D N J r....     . F ..D u 9 , $ @ X X   &X",
"&X                *.$X$X$X$X%X%X%X$X$X$X$X$X$X%X*.= !.$X$X$X$X$X$XoXoX%X$X$X$X$X_.D.r.! Q +.l.2       y X.J l q , & @ X X .   &X",
"&X                2.$X$X$XoX-.v #.&.3.}.$X$X$X$XP.L.$X$X$X$X%X~.:.I P ,.E.#X+XK.- w c.r.0.c.V       * | ! N q 3 & @ X X X .   &X",
"&X                L.$X$X$X'.=         *.%X$X$X$X.X#X$X$X$X.X1.# @ & 4 y E F.:..     E A.A.X..     . E } C y 4 , $ @ X X . .   &X",
"&X                ~.$X$X$X~.o         s oX$X$X$X$X$X$X$X+X-.. . X @ & 0 l ! l       # c.S.<       z ..F l 0 , & @ X X X . .     ",
"&X              = '.$X$X$XP.          <.%X$X$X$X$X$X$X$XL.. . . X @ $ , t Z } 8       w V       6 X.Q z t 4 & @ X X X .   .     ",
"                7  X$X$X$XJ.= ; ; s 2..X$X$X$X$X$X$X$X.Xs     . X O @ & 4 l Q ! #             + ^ | D y 5 , $ @ X X . . .       ",
"                f +X$X$X$XoX|.|.}.oX$X$X$X$X$X$X$X$X$XQ..   . . X X @ & 4 u F 8.E .         . K q.! Z y 4 , $ @ @ X . . . .     ",
"                *.%X$X$X$X$X$X$X$X$X$X$X$X$X.X$X$X$X$Xm.  . . . X O $ , 0 l F 0.V.2         * z.q.! D j q 3 & & @ X X . . .     ",
"                <.$X$X$X$X$X$X$X$X$X$X$XoXL.2.%X$X$X$X<.  . . X X $ , 4 e Z | z.) .           K V.8.E z y 4 , $ @ O X X . . .   ",
"                L.$X$X$X#X'.'.'.`.^.!.2.f   -.$X$X$X$X2.  . X X @ $ , q z Q q.q.#             o 8.z. .F z q 4 , $ @ O X . .     ",
"                Q.$X$X$X^.= o o o o         *.%X$X$X$XP.. . X @ $ , 0 l F 8.B.y       w q       8 v.q.! Z l q 4 & $ O X X X .   ",
"&X            o `.$X$X$XP.                  f +X$X$X$X}.a . O @ & 4 y Z  .B.E       +  .) +       Z B.8.W z y 4 , & $ O X . .   ",
"&X            ; }.$X$X$XJ.                  = `.$X$X$X$XP.* O $ , q z o.).E.>       Z ^ ! z       .  .z. .F z e 4 , & O X X .   ",
"&X            f +X$X$X$X-.                    2.$X$X$X$X$XQ.%.w u P M.{.$X%XI.-   8 ~ V z Y 6       : p.u.^ Z l q < > $ O O . &X",
"&X            $.%X$X$X%X#.                    ; `.$X$X$X$X$X+X|.|. X%X$X$X$X$XW.6 E Z q 0 z Z O       x v.8.W Z y 0 , & $ O . &X",
"&X            <.$X$X$XoXs                       I }.$X$X$X$X$X$X$X$X$X$X$X$X+Xm.A Y y 4 , 8 Z j         ~ a. .Y z e 4 , $ O   &X",
"&X&X          J.$X$X$X|.;                   .     v /.$X$X$X$X$X$X$X$X$X$X|.=.w W k 4 & $ > e A ,       % 9.u.) Z j q < , O   &X",
"&X&X          3.`.^.`.L.o                 . . . . . 2 1./..X#X$X$X%XXX_.4.2 + Y Z q > O O O > j Z o       w a.8.W Z y 0 , O &X&X",
"&X&X          . o o o .                   .   . X O @ $ 0 G >.N.T.s.a +     c R e < $ O X X @ < n u         S a. .Y b e 4 X &X&X",
"&X&X&X                                  .   . X O O $ > 0 j F 6.7.%       8 E z 4 $ O X . X X $ q A ,       o ` q.( A z 1   &X&X",
"&X&X&X                                    . . X O $ > 4 h A 5.t.r       + S Z 0 > @ X . . . . O > j n o       1 9.9.W Z > &X&X&X",
"&X&X&X                              .   . . X O $ $ < e n ~ 7.U         x S h , @ O X   .   . X @ < z e         x t.` n o &X&X&X",
"&X&X&X&X                          .   . . X X O $ < q k Y 6.9.( Y Y S S Y k 4 % O X . .     . . X $ 0 n c S Y Y ~ u.9.w &X&X&X&X",
"&X&X&X&X                            . . . X O $ > 4 h A ) 7.f.d.d.d.t.( c q > O X X .         . . O > j Y t.d.d.d.d./ + &X&X&X&X",
"&X&X&X&X&X                      . . . . . X O > < h b T 5.i.i.f.i.9._ m h , $ X X . .           . . O 4 k ~ 7.u.i.t.w &X&X&X&X&X",
"&X&X&X&X&X&X                    . . . . O O $ < 0 k R ( 7.9.7.9.7.5.U h < > O . .                 . O $ 0 n ( 7.t.m . &X&X&X&X&X",
"&X&X&X&X&X&X                    . . . . O $ , < h m T 5.5.7.5.5.5.T x 0 > O X .   .                 . O > r A ( T + &X&X&X&X&X&X",
"&X&X&X&X&X&X&X                . . . . O O > < h n U / _ 5.5.5.5.T n h , $ X X .                     . . O < j m > &X&X&X&X&X&X&X",
"&X&X&X&X&X&X&X&X          .   . . X O O > , 0 k A T / / ( ( ( T A h < $ O . .   .                     . O @ 1 % &X&X&X&X&X&X&X&X",
"&X&X&X&X&X&X&X&X&X      .     . . . O $ > 0 h m Y T / / / T T m k 0 > @ X . .                         . . O O &X&X&X&X&X&X&X&X&X",
"&X&X&X&X&X&X&X&X&X&X        . . . O @ > < h x m U T T T T T m x 0 < $ X X .                             .     &X&X&X&X&X&X&X&X&X",
"&X&X&X&X&X&X&X&X&X&X&X  . . . X O O > < 0 h m A U U U U U A m h < $ O X . .                               &X&X&X&X&X&X&X&X&X&X&X",
"&X&X&X&X&X&X&X&X&X&X&X&X  . . X O % > 1 h x m m U m U m m b h 0 > O . . . .                             &X&X&X&X&X&X&X&X&X&X&X&X",
"&X&X&X&X&X&X&X&X&X&X&X&X&X    O @ > < h h b m m m m m m m k 0 > $ O . . .                             &X&X&X&X&X&X&X&X&X&X&X&X&X",
"&X&X&X&X&X&X&X&X&X&X&X&X&X&X&X. O < w h x b b b b m b b k e < > O . . .                             &X&X&X&X&X&X&X&X&X&X&X&X&X&X",
"&X&X&X&X&X&X&X&X&X&X&X&X&X&X&X&X  + 1 h x x b x b b b h h < > + . . . .                         &X&X&X&X&X&X&X&X&X&X&X&X&X&X&X&X",
"&X&X&X&X&X&X&X&X&X&X&X&X&X&X&X&X&X&X. % 0 h k k h h h h 0 > O O . .                         &X&X&X&X&X&X&X&X&X&X&X&X&X&X&X&X&X&X",
"&X&X&X&X&X&X&X&X&X&X&X&X&X&X&X&X&X&X&X&X. o > 0 h h h 0 < % O . . .                     &X&X&X&X&X&X&X&X&X&X&X&X&X&X&X&X&X&X&X&X",
"&X&X&X&X&X&X&X&X&X&X&X&X&X&X&X&X&X&X&X&X&X&X&X. X $ > % @ O X . .                 &X&X&X&X&X&X&X&X&X&X&X&X&X&X&X&X&X&X&X&X&X&X&X",
"&X&X&X&X&X&X&X&X&X&X&X&X&X&X&X&X&X&X&X&X&X&X&X&X&X&X&X.                   &X&X&X&X&X&X&X&X&X&X&X&X&X&X&X&X&X&X&X&X&X&X&X&X&X&X&X"
};
