/* XPM */
static char *d449800ec73c48ee9a826b56a1e25a38[] = {
/* columns rows colors chars-per-pixel */
"16 16 111 2 ",
"   c None",
".  c #000403",
"X  c #000504",
"o  c #000505",
"O  c #000C0A",
"+  c #00100C",
"@  c #001411",
"#  c #001F1C",
"$  c #00231F",
"%  c #00291D",
"&  c #002B25",
"*  c #002C26",
"=  c #002F28",
"-  c #002C2A",
";  c #002F2C",
":  c #00332B",
">  c #003831",
",  c #003936",
"<  c #003E36",
"1  c #00422F",
"2  c #004D35",
"3  c #00453E",
"4  c #004F46",
"5  c #005043",
"6  c #005C49",
"7  c #005D54",
"8  c #005E57",
"9  c #006748",
"0  c #00614D",
"q  c #00684E",
"w  c #006D5C",
"e  c #007065",
"r  c #00766D",
"t  c #007771",
"y  c #00886D",
"u  c #008A74",
"i  c #009171",
"p  c #00947B",
"a  c #00AF8C",
"s  c #00B38B",
"d  c #00B08C",
"f  c #00B693",
"g  c #00ACA2",
"h  c #00D29D",
"j  c #00D6B2",
"k  c #00EEA1",
"l  c #00EDA5",
"z  c #00EAA9",
"x  c #00F3A4",
"c  c #00FFA3",
"v  c #00FFA4",
"b  c #00FFA7",
"n  c #00FFA8",
"m  c #00FCAA",
"M  c #00F9AE",
"N  c #00FFAC",
"B  c #00FFAD",
"V  c #00F7B2",
"C  c #00FFB2",
"Z  c #00FFB8",
"A  c #00FFB9",
"S  c #00FFBF",
"D  c #00DEC0",
"F  c #00E3CB",
"G  c #00E7CD",
"H  c #00ECCC",
"J  c #00EECD",
"K  c #00FFC1",
"L  c #00FEC6",
"P  c #00FFC6",
"I  c #00F8C9",
"U  c #00FFC8",
"Y  c #00FFC9",
"T  c #00FFCB",
"R  c #00FFCD",
"E  c #00E2D5",
"W  c #00EED4",
"Q  c #00F5D5",
"!  c #00FFD0",
"~  c #00FFD4",
"^  c #00FFD5",
"/  c #00FFD6",
"(  c #00FFDB",
")  c #00FBDF",
"_  c #00FFDC",
"`  c #00FFDF",
"'  c #00EDE4",
"]  c #00EEE4",
"[  c #00FFE2",
"{  c #00FFE3",
"}  c #00F9E4",
"|  c #00FFE4",
" . c #00FFE7",
".. c #00F4EA",
"X. c #00FFE9",
"o. c #00FFEB",
"O. c #00F9EF",
"+. c #00FFEE",
"@. c #00FFEF",
"#. c #00FFF1",
"$. c #00FFF2",
"%. c #00FFF4",
"&. c #00FEF5",
"*. c #00FFF5",
"=. c #00FFF6",
"-. c #00FFF8",
";. c #00FFF9",
":. c #00FFFA",
">. c #00FFFB",
",. c #00FFFC",
"<. c #00FFFD",
/* pixels */
"          <.<.<.<.<.<.          ",
"      -.-.-.-.<.<.-.<.-.-.      ",
"    %.%.%.O.' ' ] ..%.%.%.%.    ",
"  +.+.#.#.g ; - ; , t E #.+.+.  ",
"  X.X.X.+.r . 7 e 3 . 7 } X.X.  ",
"[ [ [ | ) 4 $ F } W > & G | [ [ ",
"( ( ( _ H & < Q [ j & : J _ _ _ ",
"~ ~ ~ ~ j @ 5 u e : O p ~ ~ ~ ~ ",
"R R R ! f . y d 6 0 a I R R R R ",
"L L L U i . d R L L U L L L L L ",
"K S K K q + h K S S S S S S S S ",
"  Z C V 1 % z Z Z Z Z Z Z Z Z   ",
"  C C l 2 9 M C C C C C C C C   ",
"    N n k x N N N N N N N N     ",
"      n n n n v n n n v n       ",
"          v v c c v v           "
};
